<svg xmlns="http://www.w3.org/2000/svg" viewBox="0 0 2800 1000"><defs><style>.cls-1{fill:#ff5054;}.cls-2{fill:#fff;}.cls-3{fill:#c69974;}.cls-4{fill:#291e23;}.cls-5{fill:#a04a21;}.cls-6{fill:none;stroke:#000;stroke-miterlimit:10;stroke-width:30px;}</style></defs><g id="BG"><rect class="cls-1" width="2800" height="1000"/></g><g id="font"><path class="cls-2" d="M997.64,796l-36,90.88h22.27l6.4-17.66h37.51l6.4,17.66h23l-36-90.88Zm-.51,54.53,11.9-33.15,12,33.15Z" transform="translate(0)"/><path class="cls-2" d="M1081.86,790.86a11.94,11.94,0,0,0-6-1.53,11.6,11.6,0,0,0-6,1.53,11.09,11.09,0,0,0-4.09,4.1,12,12,0,0,0,0,11.52,11,11,0,0,0,4.09,4.09,11.51,11.51,0,0,0,6,1.54,11.85,11.85,0,0,0,6-1.54,10.9,10.9,0,0,0,4.16-4.09,12,12,0,0,0,0-11.52A11,11,0,0,0,1081.86,790.86Z" transform="translate(0)"/><rect class="cls-2" x="1065.48" y="818.64" width="20.86" height="68.22"/><path class="cls-2" d="M1136.26,817.74a17.13,17.13,0,0,0-10.11,3.07,20.07,20.07,0,0,0-6.78,8.71l-.77-10.88h-19.2v68.22h20.86V854.48q0-7.68,3.59-11.71t10.75-4a22.79,22.79,0,0,1,3,.2,13.38,13.38,0,0,1,2.89.7l2-20.74a10,10,0,0,0-2.94-.89A22,22,0,0,0,1136.26,817.74Z" transform="translate(0)"/><path class="cls-2" d="M1224.52,808.53a45,45,0,0,0-15.3-9.28,55.65,55.65,0,0,0-19.46-3.27h-37.24v90.88h37a55.69,55.69,0,0,0,19.65-3.33,45.07,45.07,0,0,0,15.36-9.41,42.16,42.16,0,0,0,10-14.39,50,50,0,0,0,0-36.87A41.54,41.54,0,0,0,1224.52,808.53Zm-12.8,46.59a22.32,22.32,0,0,1-9.22,8.89,29.84,29.84,0,0,1-14.14,3.14h-13.57V815.69h13.57a30,30,0,0,1,14.14,3.14,22.34,22.34,0,0,1,9.22,8.9,30.4,30.4,0,0,1,0,27.39Z" transform="translate(0)"/><path class="cls-2" d="M1309.64,827a34.7,34.7,0,0,0-11.52-7.61,37.35,37.35,0,0,0-14.28-2.69,38,38,0,0,0-14.52,2.75,35,35,0,0,0-19.33,19.2,36.58,36.58,0,0,0-2.75,14.27,37,37,0,0,0,2.68,14.21,34.08,34.08,0,0,0,7.62,11.39,34.8,34.8,0,0,0,11.52,7.55,37.26,37.26,0,0,0,14.27,2.69,38,38,0,0,0,14.53-2.75,35.45,35.45,0,0,0,11.65-7.62,34.84,34.84,0,0,0,7.68-11.45,38.64,38.64,0,0,0,.06-28.48A34.75,34.75,0,0,0,1309.64,827Zm-12.93,34.56a15.64,15.64,0,0,1-5.44,6.15,14.34,14.34,0,0,1-15.36,0,15.49,15.49,0,0,1-5.44-6.15,19,19,0,0,1-2-8.77,19.26,19.26,0,0,1,2-8.89,15.56,15.56,0,0,1,5.44-6.15,14.29,14.29,0,0,1,15.36,0,15.71,15.71,0,0,1,5.44,6.15,19.39,19.39,0,0,1,2,8.89A19.09,19.09,0,0,1,1296.71,861.58Z" transform="translate(0)"/><path class="cls-2" d="M1380.1,826.45a21.89,21.89,0,0,0-8.32-7.17,25.13,25.13,0,0,0-11.4-2.56,28.48,28.48,0,0,0-12.35,2.69,31.36,31.36,0,0,0-10,7.42,34.52,34.52,0,0,0-6.66,10.94A36.86,36.86,0,0,0,1329,851a35.41,35.41,0,0,0,2.31,12.8,35,35,0,0,0,6.4,10.69,29.94,29.94,0,0,0,9.53,7.3,26.61,26.61,0,0,0,11.72,2.62,25.65,25.65,0,0,0,11.32-2.5,23.62,23.62,0,0,0,8.64-7v5.25a18.33,18.33,0,0,1-1.79,8.32,13.34,13.34,0,0,1-5.05,5.56,14.34,14.34,0,0,1-7.62,2,14.53,14.53,0,0,1-7-1.67,13.6,13.6,0,0,1-5-4.6L1332,894.16a30.33,30.33,0,0,0,7.17,10.05,32.6,32.6,0,0,0,11,6.65,40.18,40.18,0,0,0,14.07,2.37,39.26,39.26,0,0,0,14.47-2.56,33.11,33.11,0,0,0,11.26-7.23,32.05,32.05,0,0,0,7.3-11.14,38.94,38.94,0,0,0,2.56-14.4V818.64h-19.2Zm-2.82,32.19a14.87,14.87,0,0,1-5.18,5.57,14.3,14.3,0,0,1-14.72,0,14.81,14.81,0,0,1-5.19-5.57,16.73,16.73,0,0,1-1.92-8.13,16.43,16.43,0,0,1,1.92-8,14.81,14.81,0,0,1,5.19-5.57,14.24,14.24,0,0,1,14.72,0,14.87,14.87,0,0,1,5.18,5.57,16.43,16.43,0,0,1,1.92,8A16.73,16.73,0,0,1,1377.28,858.64Z" transform="translate(0)"/><rect class="cls-2" x="1411.84" y="842.7" width="36.61" height="17.92"/><path class="cls-2" d="M1512.9,820.3a22.64,22.64,0,0,0-12.74-3.58,23.22,23.22,0,0,0-11.78,2.94,21.78,21.78,0,0,0-8.06,7.94l-.64-9h-19.2v68.22h20.86V848.21a13.59,13.59,0,0,1,1.54-6.47,11.85,11.85,0,0,1,4.16-4.54,11.12,11.12,0,0,1,6.08-1.67,9.16,9.16,0,0,1,7.62,3.52q2.74,3.53,2.75,9.54v38.27h20.86V845.65a35.91,35.91,0,0,0-3-15.3A23.64,23.64,0,0,0,1512.9,820.3Z" transform="translate(0)"/><rect class="cls-2" x="1536.38" y="842.7" width="36.61" height="17.92"/><path class="cls-2" d="M1658.17,808.53a45,45,0,0,0-15.29-9.28,55.69,55.69,0,0,0-19.46-3.27h-37.25v90.88h37a55.64,55.64,0,0,0,19.64-3.33,45.07,45.07,0,0,0,15.36-9.41,42,42,0,0,0,10-14.39,50,50,0,0,0,0-36.87A41.43,41.43,0,0,0,1658.17,808.53Zm-12.8,46.59a22.24,22.24,0,0,1-9.21,8.89,29.88,29.88,0,0,1-14.15,3.14h-13.56V815.69H1622a30,30,0,0,1,14.15,3.14,22.26,22.26,0,0,1,9.21,8.9,30.31,30.31,0,0,1,0,27.39Z" transform="translate(0)"/><path class="cls-2" d="M1743.29,827a34.5,34.5,0,0,0-11.52-7.61,37.26,37.26,0,0,0-14.27-2.69,38.08,38.08,0,0,0-14.53,2.75,35,35,0,0,0-19.32,19.2,36.59,36.59,0,0,0-2.76,14.27,37,37,0,0,0,2.69,14.21,33.93,33.93,0,0,0,7.62,11.39,34.8,34.8,0,0,0,11.52,7.55,37.26,37.26,0,0,0,14.27,2.69,38.08,38.08,0,0,0,14.53-2.75,35.45,35.45,0,0,0,11.65-7.62,34.84,34.84,0,0,0,7.68-11.45,38.64,38.64,0,0,0,.06-28.48A34.63,34.63,0,0,0,1743.29,827Zm-12.92,34.56a15.64,15.64,0,0,1-5.44,6.15,14.34,14.34,0,0,1-15.36,0,15.49,15.49,0,0,1-5.44-6.15,19,19,0,0,1-2-8.77,19.26,19.26,0,0,1,2-8.89,15.56,15.56,0,0,1,5.44-6.15,14.29,14.29,0,0,1,15.36,0,15.71,15.71,0,0,1,5.44,6.15,19.39,19.39,0,0,1,2,8.89A19.09,19.09,0,0,1,1730.37,861.58Z" transform="translate(0)"/><path class="cls-2" d="M1814.27,818.64l-.52,7.81a21.74,21.74,0,0,0-8.32-7.17,25.06,25.06,0,0,0-11.39-2.56,28.48,28.48,0,0,0-12.35,2.69,31.36,31.36,0,0,0-10,7.42,34.52,34.52,0,0,0-6.66,10.94,36.86,36.86,0,0,0-2.37,13.25,35.41,35.41,0,0,0,2.31,12.8,35,35,0,0,0,6.4,10.69,29.83,29.83,0,0,0,9.53,7.3,26.6,26.6,0,0,0,11.71,2.62,25.66,25.66,0,0,0,11.33-2.5,23.62,23.62,0,0,0,8.64-7v5.25a18.46,18.46,0,0,1-1.79,8.32,13.3,13.3,0,0,1-5.06,5.56,14.28,14.28,0,0,1-7.61,2,14.53,14.53,0,0,1-7-1.67,13.6,13.6,0,0,1-5-4.6l-20.48,4.35a30.45,30.45,0,0,0,7.16,10.05,32.8,32.8,0,0,0,11,6.65,40.28,40.28,0,0,0,14.08,2.37,39.26,39.26,0,0,0,14.47-2.56,33.11,33.11,0,0,0,11.26-7.23,32.05,32.05,0,0,0,7.3-11.14,38.94,38.94,0,0,0,2.56-14.4V818.64Zm-3.33,40a14.81,14.81,0,0,1-5.19,5.57,14.28,14.28,0,0,1-14.71,0,14.81,14.81,0,0,1-5.19-5.57,16.73,16.73,0,0,1-1.92-8.13,16.43,16.43,0,0,1,1.92-8,14.81,14.81,0,0,1,5.19-5.57,14.22,14.22,0,0,1,14.71,0,14.81,14.81,0,0,1,5.19,5.57,16.43,16.43,0,0,1,1.92,8A16.73,16.73,0,0,1,1810.94,858.64Z" transform="translate(0)"/></g><g id="color_-_global" data-name="color - global"><path class="cls-3" d="M1841,460.86c-2.21-18.77-14.84-64.49-48.2-116.82a451,451,0,0,0-69.2-83.68c-32-30.5-69.23-57.51-110.71-80.3-18.79-21.26-53.23-45.75-94.22-66.77-45.69-23.43-90-37.42-118.63-37.42s-72.94,14-118.63,37.42c-41,21-75.43,45.51-94.22,66.77-41.48,22.79-78.72,49.8-110.71,80.3a451,451,0,0,0-69.2,83.68c-33.36,52.33-46,98-48.2,116.82-3.34,28.34,18,60.95,36.73,89.72,5.43,8.32,10.56,16.19,15,23.71,6.67,11.33,11.21,24.82,16,39.11,9.37,27.82,20,59.37,49.92,88.07,24.31,23.3,47.34,32,68.47,25.94,15.51-4.47,29.29-16.73,41-36.43a178.31,178.31,0,0,0,16.74-39c51.33,38.8,105.86,72.52,193.13,72.52,91,0,146.41-36.66,199.71-77.53,2.32,8.7,7.89,26.68,18.16,44,11.68,19.7,25.46,32,41,36.43a47.89,47.89,0,0,0,13.29,1.88c17.38,0,35.88-9.31,55.18-27.82,29.93-28.7,40.55-60.25,49.92-88.07,4.8-14.29,9.34-27.78,16-39.11,4.43-7.52,9.56-15.39,15-23.71C1823,521.81,1844.3,489.2,1841,460.86Z" transform="translate(0)"/><path class="cls-2" d="M1280.28,503.75c-11.23,24-22.42,51-13.91,76.06,6,17.54,21.64,31.21,39.64,35.59s37.79-.32,52.46-11.63c12.88-9.94,25-25.66,41.11-23.13,11.33,1.79,18.85,12.17,27.32,19.89,19.08,17.41,48.66,22.59,72.21,12s39.39-36.73,37.12-62.46c-1.31-14.92-8-28.75-14.64-42.19L1449,360.2c-3.73-7.59-7.51-15.26-13-21.7-11.73-13.76-31.34-19.31-48.85-16.1-22.71,4.15-25,18.67-34.73,36.88C1327,406.72,1303.12,455,1280.28,503.75Z" transform="translate(0)"/><path class="cls-4" d="M1352,473.4c-6.43,34,10.54,68.21,32,95.31,3.37,4.25,7.5,8.74,12.91,9,6.15.31,11-4.91,14.9-9.68,13.4-16.41,27.28-33.87,30.62-54.79,1.07-6.73,1-13.57.93-20.38l-.3-26.6a22.48,22.48,0,0,0-1-7.67c-1.43-3.8-4.79-6.52-8.17-8.79-15.24-10.28-36-16.78-54.49-14.51C1359.64,437.72,1355.53,454.7,1352,473.4Z" transform="translate(0)"/><path class="cls-5" d="M1183.25,487.61c-4.69-25-10.43-50-11.52-75.43s2.45-50.67,1-76c-1.31-22.22-6.49-44.09-7.81-66.31-.68-11.65,13.38-59.91,8.15-64.53-13.86-12.21-58.8,26.33-67.76,34.38-56.45,50.7-105.24,111.48-133.45,181.9-4.89,12.2-9.18,24.83-10.05,37.93-1.55,23.26,7.82,46,19.9,65.89s27,38.07,38.41,58.4c13.84,24.69,22.2,52.1,35.49,77.09s33.2,48.52,60.39,56.41c7,2,14.52,3,21.75,1.69,14.08-2.48,25.4-12.86,34.75-23.68,14-16.15,25.78-35.08,28.67-56.22,1.74-12.76.15-25.72-1.44-38.5C1195,562.87,1190.27,525.05,1183.25,487.61Z" transform="translate(0)"/><path class="cls-5" d="M1824.33,430.53c-19.84-46.86-41-93.67-71.45-134.47-20.59-27.64-61.07-78-98.09-82.11-47.22-5.21-21.71,61.49-21.28,88.25.41,25.84-2.58,51.6-5.57,77.27q-3.7,31.95-7.43,63.92c-2.89,24.93-5.8,49.93-11.33,74.42-5.48,24.24-13.54,48.07-15.55,72.85a153,153,0,0,0,31,104.69c4.45,5.77,9.39,11.28,15.39,15.42,20.27,14,49.15,9.14,69-5.47s32.27-37,42.63-59.29c17.94-38.67,31.61-79.7,55.47-115,11.71-17.35,26.28-34.44,28.1-55.29C1836.54,460.1,1830.43,444.94,1824.33,430.53Z" transform="translate(0)"/></g><g id="DOG_lines" data-name="DOG lines"><path class="cls-6" d="M1609.5,184.5c179,98,222,243,226,277s-31,76-51,110-20.59,83.42-65,126c-73,70-110-18-119-54s9-132,19-185,29-223-6-269S1460,92.37,1400,92.37s-178.5,51.13-213.5,97.13-16,216-6,269,28,149,19,185-46,124-119,54c-44.41-42.58-45-92-65-126s-55-76-51-110,47-179,226-277" transform="translate(0)"/><path class="cls-6" d="M1592.5,642.5C1541,682,1486.81,719,1396,719s-145-37-196.5-76.5" transform="translate(0)"/><path class="cls-6" d="M1400,437.69c-65.34-.33-55.42,88.56,26.9,158.53,68.33,58.08,125.33-13.47,105.06-58.07-14.1-31-64.74-135-86.69-179.79-6.16-12.57-16.23-33-45.27-33s-39.11,20.41-45.27,33c-22,44.81-72.59,148.79-86.69,179.79-20.27,44.6,36.73,116.15,105.06,58.07C1455.42,526.25,1465.34,437.36,1400,437.69Z" transform="translate(0)"/><circle cx="1258" cy="342" r="43"/><circle class="cls-2" cx="1250" cy="329" r="13"/><circle cx="1536" cy="342" r="43"/><circle class="cls-2" cx="1528" cy="329" r="13"/></g></svg>